<?xml version="1.0" encoding="utf-8" ?>
<svg baseProfile="tiny" height="1024" version="1.2" width="1024" xmlns="http://www.w3.org/2000/svg" xmlns:ev="http://www.w3.org/2001/xml-events" xmlns:xlink="http://www.w3.org/1999/xlink"><defs /><polygon fill="black" points="641,77 641,78 640,79 640,80 639,81 639,82 638,83 638,84 637,85 637,86 635,88 635,89 634,90 634,91 632,93 632,94 631,95 631,96 629,98 629,99 627,101 627,102 624,105 624,106 621,109 621,110 618,113 618,114 613,119 613,120 602,131 602,132 599,135 598,135 587,146 586,146 582,150 581,150 577,154 576,154 573,157 572,157 569,160 568,160 566,162 565,162 563,164 562,164 560,166 559,166 557,168 556,168 554,170 553,170 551,172 550,172 549,173 548,173 546,175 545,175 543,177 542,177 541,178 540,178 538,180 537,180 536,181 535,181 534,182 533,182 531,184 530,184 529,185 528,185 527,186 526,186 524,188 523,188 522,189 521,189 520,190 519,190 518,191 517,191 515,193 514,193 513,194 512,194 511,195 510,195 509,196 508,196 507,197 506,197 505,198 504,198 502,200 501,200 500,201 499,201 498,202 497,202 496,203 495,203 494,204 493,204 492,205 491,205 490,206 489,206 488,207 487,207 486,208 485,208 484,209 483,209 482,210 481,210 480,211 479,211 478,212 477,212 476,213 475,213 474,214 473,214 472,215 471,215 470,216 469,216 468,217 467,217 466,218 465,218 464,219 462,219 461,220 460,220 459,221 458,221 457,222 456,222 455,223 454,223 453,224 452,224 451,225 450,225 449,226 448,226 447,227 446,227 445,228 444,228 443,229 442,229 441,230 440,230 439,231 438,231 437,232 436,232 435,233 434,233 433,234 432,234 431,235 430,235 429,236 428,236 427,237 426,237 425,238 424,238 423,239 422,239 420,241 419,241 418,242 417,242 416,243 415,243 413,245 412,245 411,246 410,246 409,247 408,247 406,249 405,249 404,250 403,250 401,252 400,252 398,254 397,254 396,255 395,255 393,257 392,257 390,259 389,259 387,261 386,261 383,264 382,264 379,267 378,267 375,270 374,270 369,275 368,275 354,289 354,290 349,295 349,296 344,301 344,302 340,306 340,307 337,310 337,311 332,316 332,317 326,323 326,324 306,344 305,344 300,349 299,349 295,353 294,353 291,356 290,356 288,358 287,358 284,361 283,361 283,363 284,363 285,364 286,364 287,365 288,365 289,366 290,366 291,367 292,367 293,368 295,368 296,369 298,369 299,370 301,370 302,371 305,371 306,372 306,373 304,375 303,375 290,388 289,388 283,394 282,394 279,397 278,397 275,400 274,400 271,403 270,403 268,405 267,405 266,406 265,406 263,408 262,408 261,409 260,409 259,410 258,410 257,411 256,411 255,412 254,412 253,413 252,413 251,414 250,414 249,415 248,415 247,416 245,416 244,417 242,417 241,418 239,418 238,419 236,419 235,418 235,417 236,416 236,407 237,406 237,401 234,401 233,402 231,402 230,403 228,403 226,405 225,405 223,407 222,407 212,417 212,418 209,421 209,422 207,424 207,425 205,427 205,428 204,429 204,430 203,431 203,432 201,434 201,436 200,437 200,438 199,439 199,440 198,441 198,442 197,443 197,445 196,446 196,448 195,449 195,451 194,452 194,454 193,455 193,458 192,459 192,462 191,463 191,468 190,469 190,476 189,477 189,494 190,495 190,502 191,503 191,507 192,508 192,510 193,511 193,514 194,515 194,516 195,517 195,519 196,520 196,521 197,522 197,523 198,524 198,525 199,526 199,527 201,529 201,530 202,531 202,532 206,536 206,537 210,541 211,541 215,545 216,545 218,547 220,547 220,543 221,542 221,538 222,537 222,535 223,534 223,532 224,531 224,530 225,529 225,528 226,527 226,526 227,525 227,524 228,523 228,522 231,519 231,518 239,510 240,510 243,507 244,507 246,505 247,505 249,503 250,503 251,502 252,502 254,500 255,500 256,499 257,499 258,498 259,498 261,496 262,496 263,495 264,495 265,494 266,494 267,493 268,493 269,492 270,492 271,491 272,491 273,490 274,490 275,489 277,489 278,488 279,488 280,487 281,487 282,486 283,486 284,485 285,485 286,484 287,484 288,483 290,483 291,482 292,482 293,481 294,481 295,480 296,480 297,479 298,479 299,478 300,478 301,477 302,477 304,475 305,475 306,474 307,474 308,473 309,473 310,472 311,472 313,470 314,470 315,469 316,469 317,468 318,468 320,466 321,466 323,464 324,464 325,463 326,463 328,461 329,461 330,460 331,460 333,458 334,458 335,457 336,457 338,455 339,455 340,454 341,454 342,453 343,453 344,452 345,452 346,451 347,451 348,450 349,450 350,449 351,449 352,448 354,448 355,447 357,447 358,446 361,446 362,445 366,445 367,444 373,444 374,443 388,443 389,444 395,444 396,445 399,445 400,446 402,446 403,447 405,447 406,448 407,448 408,449 409,449 411,451 410,452 404,452 403,453 398,453 397,454 394,454 393,455 391,455 390,456 388,456 387,457 385,457 384,458 383,458 382,459 380,459 379,460 378,460 377,461 376,461 375,462 374,462 373,463 372,463 371,464 370,464 368,466 367,466 366,467 365,467 363,469 362,469 360,471 359,471 357,473 356,473 354,475 353,475 350,478 349,478 345,482 344,482 340,486 339,486 332,493 331,493 322,502 321,502 310,513 309,513 302,520 301,520 297,524 296,524 293,527 292,527 290,529 289,529 288,530 287,530 285,532 284,532 283,533 282,533 281,534 279,534 278,535 277,535 276,536 274,536 273,537 271,537 270,538 267,538 266,539 262,539 261,540 255,540 254,541 246,541 246,543 247,544 247,545 248,546 248,547 249,548 249,549 251,551 251,552 254,555 254,556 262,564 263,564 266,567 267,567 269,569 270,569 271,570 272,570 273,571 274,571 275,572 276,572 277,573 278,573 279,574 281,574 282,575 283,575 284,576 286,576 287,577 290,577 291,578 294,578 295,579 299,579 300,580 307,580 308,581 328,581 329,580 335,580 336,579 340,579 341,578 344,578 345,577 348,577 349,576 351,576 352,575 353,575 354,574 356,574 357,573 358,573 359,572 361,572 362,571 363,571 364,570 365,570 366,569 367,569 369,567 370,567 372,565 373,565 373,564 366,564 365,563 361,563 360,562 356,562 355,561 353,561 352,560 350,560 349,559 347,559 346,558 345,558 344,557 343,557 342,556 341,556 340,555 339,555 338,554 338,553 340,551 340,550 342,548 342,547 346,543 346,542 362,526 363,526 366,523 367,523 369,521 370,521 372,519 373,519 375,517 376,517 377,516 378,516 379,515 380,515 381,514 382,514 383,513 384,513 385,512 386,512 387,511 388,511 389,510 390,510 391,509 392,509 393,508 395,508 396,507 397,507 398,506 400,506 401,505 403,505 404,504 406,504 407,503 409,503 410,502 413,502 414,501 416,501 417,500 420,500 421,499 425,499 426,498 430,498 431,497 437,497 438,496 450,496 451,495 454,495 455,496 470,496 471,497 477,497 478,498 483,498 484,499 487,499 488,500 491,500 492,501 494,501 495,502 497,502 498,503 500,503 501,504 502,504 503,505 505,505 506,506 507,506 508,507 509,507 510,508 511,508 512,509 513,509 514,510 515,510 517,512 518,512 520,514 521,514 524,517 525,517 531,523 531,515 530,514 530,511 529,510 529,508 528,507 528,505 527,504 527,503 526,502 526,501 525,500 525,499 524,498 524,497 522,495 522,494 520,492 520,491 508,479 507,479 504,476 503,476 501,474 500,474 499,473 500,472 506,472 507,471 529,471 530,472 535,472 536,473 541,473 542,474 545,474 546,475 548,475 549,476 551,476 552,477 554,477 555,478 557,478 558,479 559,479 560,480 561,480 562,481 563,481 563,479 562,478 562,475 561,474 561,472 560,471 560,470 559,469 559,468 558,467 558,466 557,465 557,464 555,462 555,461 554,460 554,459 551,456 551,455 537,441 536,441 533,438 532,438 530,436 529,436 527,434 526,434 525,433 524,433 522,431 521,431 520,430 519,430 518,429 517,429 516,428 515,428 514,427 513,427 512,426 511,426 510,425 508,425 507,424 506,424 505,423 505,422 506,421 506,420 507,419 507,418 509,416 509,415 512,412 512,411 519,404 519,403 522,400 523,400 528,395 529,395 530,394 531,394 533,392 535,392 536,391 537,391 538,390 540,390 541,389 544,389 545,388 551,388 552,387 568,387 569,388 577,388 578,389 582,389 583,390 587,390 588,391 591,391 592,392 594,392 595,393 597,393 598,394 600,394 601,395 602,395 603,396 605,396 606,397 607,397 608,398 609,398 610,399 611,399 612,400 613,400 614,401 615,401 616,402 617,402 618,403 619,403 621,405 620,406 619,406 618,405 586,405 585,406 579,406 578,407 574,407 573,408 569,408 568,409 565,409 564,410 562,410 561,411 559,411 558,412 556,412 555,413 554,413 553,414 551,414 550,415 549,415 548,416 547,416 546,417 544,417 543,418 542,418 540,420 539,420 538,421 537,421 537,422 539,422 540,423 542,423 543,424 545,424 546,425 548,425 549,426 550,426 551,427 553,427 554,428 555,428 556,429 557,429 558,430 560,430 561,431 562,431 563,432 564,432 566,434 567,434 568,435 569,435 571,437 572,437 575,440 576,440 588,452 588,453 591,456 591,457 593,459 593,460 594,461 594,462 595,463 595,464 596,465 596,466 597,467 597,469 598,470 598,472 599,473 599,476 600,477 600,481 601,482 601,498 600,499 600,504 599,505 599,508 598,509 598,511 597,512 597,514 596,515 596,517 595,518 595,519 594,520 594,521 593,522 593,523 592,524 592,525 590,527 590,528 588,530 588,531 586,533 586,534 582,538 582,539 572,549 571,549 567,553 566,553 563,556 562,556 560,558 559,558 557,560 556,560 554,562 553,562 552,563 551,563 549,565 548,565 547,566 546,566 545,567 544,567 543,568 542,568 540,570 539,570 538,571 537,571 536,572 534,572 533,573 532,573 531,574 530,574 529,575 528,575 527,576 526,576 525,577 524,577 523,578 521,578 520,579 519,579 518,580 516,580 515,581 514,581 513,582 511,582 510,583 509,583 508,584 506,584 505,585 503,585 502,586 501,586 500,587 498,587 497,588 495,588 494,589 492,589 491,590 489,590 488,591 486,591 485,592 483,592 482,593 481,593 480,594 477,594 476,595 474,595 473,596 471,596 470,597 468,597 467,598 465,598 464,599 462,599 461,600 459,600 458,601 456,601 455,602 453,602 452,603 450,603 449,604 447,604 446,605 444,605 443,606 442,606 441,607 439,607 438,608 436,608 435,609 433,609 432,610 431,610 430,611 428,611 427,612 426,612 425,613 423,613 422,614 421,614 420,615 419,615 418,616 416,616 415,617 414,617 413,618 412,618 411,619 410,619 409,620 407,620 406,621 405,621 404,622 403,622 402,623 401,623 400,624 399,624 398,625 397,625 395,627 394,627 393,628 392,628 391,629 390,629 389,630 388,630 386,632 385,632 384,633 383,633 381,635 380,635 378,637 377,637 375,639 374,639 372,641 371,641 369,643 368,643 365,646 364,646 361,649 360,649 356,653 355,653 350,658 349,658 332,675 332,676 326,682 326,683 322,687 322,688 320,690 320,691 317,694 317,695 315,697 315,698 313,700 313,701 311,703 311,704 310,705 310,706 308,708 308,709 307,710 307,711 306,712 306,713 305,714 305,715 304,716 304,717 303,718 303,719 302,720 302,721 301,722 301,723 300,724 300,726 299,727 299,728 298,729 298,731 297,732 297,734 296,735 296,736 295,737 295,739 294,740 294,743 293,744 293,747 292,748 292,751 291,752 291,756 290,757 290,761 289,762 289,768 288,769 288,801 289,802 289,809 290,810 290,814 290,813 291,812 291,811 292,810 292,808 293,807 293,806 294,805 294,804 295,803 295,802 296,801 296,800 297,799 297,797 298,796 298,795 300,793 300,792 301,791 301,790 302,789 302,788 303,787 303,786 304,785 304,784 305,783 305,782 307,780 307,779 309,777 309,776 310,775 310,774 312,772 312,771 315,768 315,767 317,765 317,764 320,761 320,760 324,756 324,755 331,748 331,747 345,733 346,733 351,728 352,728 353,729 353,730 352,731 352,732 350,734 350,735 349,736 349,737 348,738 348,739 347,740 347,741 345,743 345,745 344,746 344,747 343,748 343,749 342,750 342,751 341,752 341,754 340,755 340,757 339,758 339,760 338,761 338,763 337,764 337,766 336,767 336,770 335,771 335,775 334,776 334,781 333,782 333,789 332,790 332,811 333,812 333,819 334,820 334,825 335,826 335,830 336,831 336,834 337,835 337,838 338,839 338,841 339,842 339,844 340,845 340,847 341,848 341,849 342,850 342,852 343,853 343,854 344,855 344,856 345,857 345,859 346,860 346,861 347,862 347,863 348,864 348,865 350,867 350,868 351,869 351,870 352,871 352,872 354,874 354,875 355,876 355,877 357,879 357,880 359,882 359,883 362,886 362,887 364,889 364,890 368,894 368,895 372,899 372,900 392,920 393,920 398,925 399,925 403,929 404,929 407,932 408,932 410,934 411,934 413,936 414,936 416,938 417,938 419,940 420,940 421,941 422,941 424,943 425,943 426,944 427,944 428,945 429,945 430,946 431,946 430,945 430,944 429,943 429,942 428,941 428,940 427,939 427,937 426,936 426,935 425,934 425,933 424,932 424,930 423,929 423,927 422,926 422,924 421,923 421,921 420,920 420,917 419,916 419,912 418,911 418,907 417,906 417,897 416,896 416,883 417,882 417,874 418,873 418,867 419,866 419,863 420,862 420,859 421,858 421,855 422,854 422,852 423,851 423,849 424,848 424,847 425,846 425,844 426,843 426,841 427,840 427,839 428,838 428,837 429,836 429,835 430,834 430,833 431,832 431,831 432,830 432,829 433,828 433,827 435,825 435,824 436,823 436,822 437,821 437,820 439,818 439,817 441,815 441,814 444,811 444,810 446,808 446,807 449,804 449,803 453,799 453,798 459,792 459,791 479,771 480,771 486,765 487,765 491,761 492,761 495,758 496,758 499,755 500,755 502,753 503,753 506,750 507,750 509,748 510,748 512,746 513,746 516,743 517,743 518,742 519,742 521,740 522,740 524,738 525,738 527,736 528,736 529,735 530,735 532,733 533,733 535,731 536,731 537,730 538,730 539,729 540,729 542,727 543,727 544,726 545,726 546,725 547,725 548,724 549,724 550,723 551,723 552,722 553,722 554,721 555,721 556,720 557,720 558,719 559,719 560,718 562,718 563,717 564,718 564,725 563,726 563,730 562,731 562,734 561,735 561,737 560,738 560,740 559,741 559,742 558,743 558,745 557,746 557,747 556,748 556,749 555,750 555,751 556,750 557,750 559,748 560,748 563,745 564,745 567,742 568,742 571,739 572,739 576,735 577,735 581,731 582,731 587,726 588,726 594,720 595,720 611,704 612,704 613,703 613,702 625,690 625,689 631,683 631,682 635,678 635,677 639,673 639,672 642,669 642,668 644,666 644,665 646,663 646,662 648,660 648,659 650,657 650,656 652,654 652,653 653,652 653,651 654,650 654,649 656,647 656,646 657,645 657,644 658,643 658,642 659,641 659,640 660,639 660,638 661,637 661,636 662,635 662,634 663,633 663,631 664,630 664,629 665,628 665,626 666,625 666,624 667,623 667,621 668,620 668,618 669,617 669,614 670,613 671,614 671,615 672,616 672,619 673,620 673,624 674,625 674,630 675,631 675,639 676,640 676,658 675,659 675,669 674,670 674,675 673,676 673,681 672,682 672,685 671,686 671,689 670,690 670,693 669,694 669,697 668,698 668,700 667,701 667,703 666,704 666,706 665,707 665,709 664,710 664,712 663,713 663,714 662,715 662,717 661,718 661,719 660,720 660,722 659,723 659,724 658,725 658,726 657,727 657,729 656,730 656,731 655,732 655,733 654,734 654,735 653,736 653,737 652,738 652,739 651,740 651,741 650,742 650,743 649,744 649,745 648,746 648,747 647,748 647,749 646,750 646,751 645,752 645,753 644,754 644,755 643,756 643,757 642,758 642,759 641,760 641,761 643,759 644,759 648,755 649,755 654,750 655,750 681,724 681,723 686,718 686,717 690,713 690,712 693,709 693,708 696,705 696,704 698,702 698,701 700,699 700,698 702,696 702,695 704,693 704,692 705,691 705,690 707,688 707,687 708,686 708,685 709,684 709,683 711,681 711,680 712,679 712,678 713,677 713,676 714,675 714,674 715,673 715,672 716,671 716,670 717,669 717,668 718,667 718,665 719,664 719,663 720,662 720,661 721,660 721,658 722,657 722,656 723,655 723,653 724,652 724,651 725,650 725,648 726,647 726,645 727,644 727,642 728,641 728,639 729,638 729,635 730,634 730,632 731,631 731,628 732,627 732,624 733,623 733,620 734,619 734,615 735,614 735,610 736,609 736,605 737,604 737,598 738,597 738,589 739,588 739,578 740,577 740,546 739,545 739,535 738,534 738,526 737,525 737,519 736,518 736,513 735,512 735,508 734,507 734,503 733,502 733,499 732,498 732,494 731,493 731,491 730,490 730,487 729,486 729,483 728,482 728,480 727,479 727,476 726,475 726,473 725,472 725,470 724,469 724,467 723,466 723,463 722,462 722,461 723,460 725,462 726,462 728,464 729,464 732,467 733,467 736,470 737,470 742,475 743,475 752,484 752,485 758,491 758,492 762,496 762,497 764,499 764,500 767,503 767,504 769,506 769,507 770,508 770,509 772,511 772,512 773,513 773,514 775,516 775,517 776,518 776,519 777,520 777,521 778,522 778,523 779,524 779,525 780,526 780,527 781,528 781,529 782,530 782,531 783,532 783,533 784,534 784,535 785,536 785,538 786,539 786,540 787,541 787,543 788,544 788,545 789,546 789,548 790,549 790,551 791,552 791,554 792,555 792,557 793,558 793,561 794,562 794,564 795,565 795,568 796,569 796,572 797,573 797,576 798,577 798,581 799,582 799,586 800,587 800,592 801,593 801,599 802,599 802,597 803,596 803,594 804,593 804,590 805,589 805,586 806,585 806,581 807,580 807,574 808,573 808,563 809,562 809,540 808,539 808,527 807,526 807,519 806,518 806,512 805,511 805,507 804,506 804,501 803,500 803,497 802,496 802,493 801,492 801,489 800,488 800,485 799,484 799,482 798,481 798,479 797,478 797,476 796,475 796,473 795,472 795,470 794,469 794,468 793,467 793,465 792,464 792,463 791,462 791,461 790,460 790,458 788,456 788,454 787,453 787,452 786,451 786,450 784,448 784,447 783,446 783,445 782,444 782,443 781,442 781,441 779,439 779,438 778,437 778,436 776,434 776,433 774,431 774,430 772,428 772,427 770,425 770,424 768,422 768,421 765,418 765,417 762,414 762,413 758,409 758,408 752,402 752,401 730,379 729,379 723,373 722,373 717,368 716,368 713,365 712,365 709,362 708,362 705,359 704,359 702,357 701,357 699,355 698,355 696,353 695,353 693,351 692,351 690,349 689,349 688,348 687,348 685,346 684,346 683,345 682,345 680,343 679,343 678,342 677,342 676,341 675,341 674,340 673,340 672,339 671,339 670,338 669,338 668,337 667,337 666,336 665,336 664,335 663,335 662,334 660,334 658,332 659,331 664,331 665,330 672,330 673,329 706,329 707,330 714,330 715,331 720,331 721,332 725,332 726,333 730,333 731,334 734,334 735,335 738,335 739,336 741,336 742,337 744,337 745,338 748,338 749,339 750,339 751,340 753,340 754,341 756,341 757,342 759,342 760,343 761,343 762,344 764,344 765,345 766,345 767,346 768,346 769,347 770,347 771,348 772,348 773,349 774,349 775,350 776,350 777,351 778,351 779,352 780,352 781,353 782,353 783,354 784,354 785,355 786,355 788,357 789,357 788,356 788,355 770,337 769,337 764,332 763,332 759,328 758,328 755,325 754,325 751,322 750,322 748,320 747,320 744,317 743,317 742,316 741,316 739,314 738,314 736,312 735,312 733,310 732,310 731,309 730,309 729,308 728,308 726,306 725,306 724,305 723,305 722,304 721,304 719,302 718,302 717,301 716,301 715,300 714,300 713,299 712,299 711,298 710,298 709,297 708,297 707,296 705,296 704,295 703,295 702,294 701,294 700,293 698,293 697,292 696,292 695,291 694,291 693,290 691,290 690,289 688,289 687,288 685,288 684,287 683,287 682,286 679,286 678,285 676,285 675,284 673,284 672,283 669,283 668,282 665,282 664,281 661,281 660,280 656,280 655,279 650,279 649,278 642,278 641,277 631,277 630,276 626,276 625,277 622,277 621,278 619,278 618,279 616,279 615,280 612,280 611,281 609,281 608,282 606,282 605,283 603,283 602,284 600,284 599,285 597,285 596,286 595,286 594,287 592,287 591,288 589,288 588,289 587,289 586,290 584,290 583,291 582,291 581,292 579,292 578,293 577,293 576,294 575,294 574,295 572,295 571,296 570,296 569,297 568,297 567,298 566,298 565,299 564,299 563,300 561,300 560,301 559,301 558,302 557,302 556,303 555,303 553,305 552,305 551,306 550,306 549,307 548,307 547,308 546,308 545,309 544,309 542,311 541,311 540,312 539,312 537,314 536,314 534,316 533,316 532,315 532,314 541,305 542,305 547,300 548,300 551,297 552,297 555,294 556,294 558,292 559,292 561,290 562,290 564,288 565,288 566,287 567,287 569,285 570,285 571,284 572,284 573,283 574,283 575,282 576,282 578,280 579,280 580,279 581,279 582,278 583,278 584,277 585,277 586,276 587,276 588,275 589,275 590,274 591,274 592,273 593,273 594,272 595,272 596,271 598,271 599,270 600,270 601,269 602,269 603,268 604,268 605,267 606,267 607,266 608,266 609,265 610,265 611,264 613,264 614,263 615,263 616,262 617,262 618,261 619,261 620,260 621,260 622,259 623,259 624,258 626,258 627,257 628,257 629,256 630,256 631,255 632,255 633,254 634,254 635,253 636,253 637,252 638,252 639,251 640,251 641,250 642,250 643,249 644,249 645,248 646,248 647,247 648,247 649,246 650,246 651,245 652,245 654,243 655,243 656,242 657,242 658,241 659,241 660,240 661,240 663,238 664,238 665,237 666,237 667,236 668,236 670,234 671,234 672,233 673,233 675,231 676,231 677,230 678,230 680,228 681,228 683,226 684,226 686,224 687,224 689,222 690,222 692,220 693,220 695,218 696,218 699,215 700,215 703,212 704,212 707,209 708,209 713,204 714,204 720,198 721,198 741,178 741,177 747,171 747,170 751,166 751,165 754,162 754,161 756,159 756,158 758,156 758,155 760,153 760,152 761,151 761,150 763,148 763,147 764,146 764,145 765,144 765,143 767,141 767,140 768,139 768,138 769,137 769,135 770,134 770,133 771,132 771,131 772,130 772,129 773,128 773,126 774,125 774,124 775,123 775,121 776,120 776,118 777,117 777,115 778,114 778,111 779,110 779,107 780,106 780,102 779,103 779,104 775,108 775,109 769,115 769,116 745,140 744,140 737,147 736,147 732,151 731,151 727,155 726,155 723,158 722,158 719,161 718,161 716,163 715,163 713,165 712,165 710,167 709,167 706,170 705,170 704,171 703,171 701,173 700,173 698,175 697,175 696,176 695,176 693,178 692,178 691,179 690,179 689,180 688,180 686,182 685,182 684,183 683,183 682,184 681,184 680,185 679,185 678,186 677,186 676,187 675,187 674,188 673,188 672,189 671,189 670,190 669,190 668,191 667,191 666,192 665,192 664,193 662,193 661,194 660,194 659,195 658,195 657,196 655,196 654,197 653,197 652,198 651,198 650,199 648,199 647,200 646,200 645,201 643,201 642,202 641,202 640,203 638,203 637,204 635,204 634,205 633,205 632,206 630,206 629,207 627,207 626,208 625,208 624,209 622,209 621,210 619,210 618,211 616,211 615,212 613,212 612,213 610,213 609,214 607,214 606,215 604,215 603,216 601,216 600,217 598,217 597,218 595,218 594,219 592,219 591,220 589,220 588,221 585,221 584,222 582,222 581,223 579,223 578,224 576,224 575,225 572,225 571,226 569,226 568,227 565,227 564,228 562,228 561,229 559,229 558,230 555,230 554,231 551,231 550,232 548,232 547,233 544,233 543,234 540,234 539,235 537,235 536,236 533,236 532,237 530,237 529,238 526,238 525,237 526,236 527,236 528,235 529,235 530,234 531,234 533,232 534,232 535,231 536,231 538,229 539,229 541,227 542,227 543,226 544,226 546,224 547,224 549,222 550,222 552,220 553,220 556,217 557,217 560,214 561,214 564,211 565,211 568,208 569,208 574,203 575,203 582,196 583,196 601,178 601,177 608,170 608,169 612,165 612,164 615,161 615,160 617,158 617,157 619,155 619,154 621,152 621,151 623,149 623,148 625,146 625,145 626,144 626,143 627,142 627,141 628,140 628,139 629,138 629,137 630,136 630,135 631,134 631,133 632,132 632,131 633,130 633,129 634,128 634,126 635,125 635,124 636,123 636,121 637,120 637,118 638,117 638,115 639,114 639,111 640,110 640,107 641,106 641,102 642,101 642,90 643,89 643,87 642,86 642,77" /></svg>